<?xml version="1.0" encoding="UTF-8"?>
<svg id="Layer_1" data-name="Layer 1" xmlns="http://www.w3.org/2000/svg" viewBox="0 0 153.97 132.89">
  <defs>
    <style>
      .cls-1 {
        fill: #1197c1;
        stroke: #fcb527;
        stroke-miterlimit: 10;
        stroke-width: 2px;
      }
    </style>
  </defs>
  <path class="cls-1" d="m118.32,73.81h-13.65v38.79c1.4-.57,2.62-1.06,4.12-1.67.55.89,1.13,1.82,1.53,2.46-7.44,6.03-14.68,11.91-22.36,18.13-1.6-1.72-3.34-3.96-5.44-5.79-5.78-5.04-12.06-7.43-19.4-3.04-.66.39-1.75.05-2.64.05-.23-.41-.45-.81-.68-1.22,3.24-3.59,6.5-7.16,9.71-10.79.7-.8,1.73-1.76,1.74-2.65.12-11.35.08-22.71.08-34.25h-13.8c0,5.73.16,11.35-.04,16.95-.25,7.17-.03,14.48-1.37,21.47-1.89,9.86-7.65,17.18-18.09,19.26-2.93.59-6.23-.04-9.25-.65-4.59-.94-9.04-2.52-13.62-3.51-4.53-.98-9-1.21-11.98,3.52-.26.41-1.17.41-1.78.61-.14-.54-.46-1.1-.39-1.61,1.76-13.92,10.07-21.11,23.49-19.57,4.65.54,9.24,1.6,13.88,2.32,1.95.3,3.94.5,5.91.49,4.45-.03,7.06-2.34,7.49-6.75.39-3.94.72-7.9.74-11.86.07-23.9.03-47.81.03-71.71,0-.7,0-1.41,0-2.18-5.77,1.79-8.65,5.47-8.7,11.62-.12,15.76-.08,31.52-.09,47.28-.01,12.76-9.77,23.97-22.41,25.63-.73.1-1.53-.35-3.19-.77,6.33-3.94,6.28-9.51,6.21-15.13-.06-5.09-.01-10.18-.01-15.22-6.1-.99-11.18-.11-8.46,5.44-5.33.53-8.74-1.91-9.84-7.03-1.94-9.01,3.55-15.75,13.27-16.27,1.55-.08,3.1-.01,5.04-.01,0-4.77.33-9.35-.07-13.87-.78-8.82,3.21-14.34,10.9-18.11,15.26-7.48,30.39-15.25,45.49-22.87,2.73,3.19,5.17,6.42,8.01,9.25,2.84,2.84,6.4,4.55,10.8,4.79V1.24h4.97v14.03c9.61-1.61,15.6-8.36,22.34-13.97,5.66,4.75,10.25,11.72,19.9,8.53-.27,1.08-.23,1.93-.64,2.39-1.66,1.87-3.19,4.06-5.26,5.29-2.83,1.69-3.12,3.87-3.11,6.75.11,25.57.07,51.15.13,76.72.02,7.54,3.89,10.39,11.13,8.49.88-.23,1.91.1,3.23.21-5.07,7.42-9.68,14.24-14.41,20.97-.44.63-1.73,1.04-2.56.94-5.8-.68-10.07-3.75-12.9-8.81-2.93-5.24-3.96-10.94-3.97-16.87-.02-10.63,0-21.25,0-32.11Zm-18.88-53.14c-2.41.61-4.5,1.27-6.65,1.64-1.73.3-2.1,1.17-2.1,2.78.04,26.61.02,53.23.06,79.84,0,.76.15,1.92.64,2.22,2.53,1.53,5.19,2.83,8.05,4.34V20.66Zm-28.11,35.96c0-10.37-.17-20.39.09-30.39.1-3.79-.51-6.39-4.69-7.17-1.18-.22-2.25-1.05-3.35-1.64-3.55-1.91-5.85-.61-5.85,3.33,0,10.95,0,21.9,0,32.86,0,1,.09,2,.14,3.01h13.66Zm46.99,0c0-9.2-.21-18.16.09-27.1.15-4.42-.25-7.95-5.33-9.06-.48-.1-.93-.48-1.31-.83-2.28-2.1-4.62-2.08-7.09-.14v37.14h13.64Z"/>
</svg>